<?xml version="1.0" encoding="UTF-8"?>
<svg width="752pt" height="752pt" version="1.1" viewBox="0 0 752 752" xmlns="http://www.w3.org/2000/svg">
 <path d="m465.98 366.53v18.941c0 2.6133-2.1172 4.7344-4.7344 4.7344h-170.49c-2.6172 0-4.7344-2.1211-4.7344-4.7344v-18.941c0-2.6133 2.1172-4.7344 4.7344-4.7344h170.49c2.6172-0.003906 4.7344 2.1172 4.7344 4.7344zm-4.7344 52.094h-170.49c-2.6172 0-4.7344 2.1211-4.7344 4.7344v18.941c0 2.6133 2.1172 4.7344 4.7344 4.7344h170.49c2.6172 0 4.7344-2.1211 4.7344-4.7344v-18.941c0-2.6133-2.1172-4.7344-4.7344-4.7344zm0-113.66h-170.49c-2.6172 0-4.7344 2.1211-4.7344 4.7344v18.941c0 2.6133 2.1172 4.7344 4.7344 4.7344h170.49c2.6172 0 4.7344-2.1211 4.7344-4.7344v-18.941c0-2.6133-2.1172-4.7344-4.7344-4.7344z" fill="#676767"/>
</svg>
